<svg width="1280" height="495" viewBox="0 0 1280 495" fill="none" xmlns="http://www.w3.org/2000/svg">
<g clip-path="url(#clip0_1_13)">
<path d="M1280 129.462H0V495H1280V129.462Z" fill="#FF9500"/>
<path d="M0.19989 110.604L25.6002 105.397L72.0002 114.928L91.2002 93.3252L124 81.8886H167.2L176 105.397H232.8L253.6 114.928L285.6 102.22L344 76.1703L368 88.8776H392.8L422.4 74.8996L444.8 76.1703L493.6 81.8886H518.4L563.2 95.8666L586.4 81.8886L623.2 69.8167L662.4 76.1703L688 102.22L724.8 105.397L742.4 121.281L776 111.115L840.8 88.8776L860.8 105.397L884 108.574L925.6 93.3252L968.8 108.574L1016.8 88.8776L1096.8 81.8886L1149.6 86.3362L1170.4 66.6399L1205.6 62.1923L1236.8 76.1703L1256.8 91.7368L1280.02 90.7723V191.019H0.19989V110.604Z" fill="#FF9500"/>
</g>
<defs>
<clipPath id="clip0_1_13">
<rect width="1280" height="495" fill="white"/>
</clipPath>
</defs>
</svg>
